<svg width="164" height="164" viewBox="0 0 164 164" fill="none" xmlns="http://www.w3.org/2000/svg">
<rect width="164" height="164" rx="82" fill="#3F3F46"/>
<path d="M83.2733 53.0806C80.638 50.5172 77.1784 52.9159 76.9744 56.0909C76.4772 63.8521 73.3929 69.3001 70.003 74.7296C69.7513 75.133 69.494 75.5415 69.2321 75.9551L69.232 75.9554C66.1742 80.8007 62.6523 86.3814 62.6523 93.4149C62.6523 106.334 71.6719 111.442 74.3847 112.686C75.0596 112.997 75.7996 113.079 76.5149 112.923C77.2303 112.766 77.8903 112.377 78.4151 111.803C78.9004 111.272 79.2535 110.605 79.4388 109.869C79.6241 109.133 79.635 108.355 79.4704 107.613C78.2831 102.218 79.4726 97.315 81.1431 93.5572L81.2021 93.6913C82.0308 95.5503 83.1649 97.0839 83.9768 98.1818L83.9773 98.1824L84.0352 98.2608C84.162 98.4325 84.2801 98.5924 84.3875 98.7416C85.2753 99.9742 85.6928 100.746 85.8653 101.646C86.0344 102.526 86.0558 104.042 85.1438 106.812C83.8655 110.692 87.5487 114.012 90.5605 112.161C97.1127 108.132 101.191 103.135 102.977 97.3494C104.756 91.5868 104.062 85.6805 102.205 80.2631C98.5551 69.611 89.9935 59.6163 83.2733 53.0806Z" fill="#2C2C31"/>
</svg>
