<svg width="72" height="25" viewBox="0 0 72 25" fill="none" xmlns="http://www.w3.org/2000/svg">
<rect x="0.837891" width="71" height="25" rx="2" fill="#0080BC"/>
<g clip-path="url(#clip0_209_4243)">
<path d="M58.3601 18.9019C55.4895 18.9019 53.0928 17.7786 52.7745 15.0954C52.7646 15.0124 52.8253 14.9373 52.9092 14.9267L55.8545 14.5547C55.9467 14.5431 56.0285 14.6128 56.0367 14.7042C56.1548 16.0408 57.1133 16.6446 58.4338 16.6446C59.8341 16.6446 60.5464 16.1349 60.5464 15.2369C60.5464 14.4359 59.613 14.1447 57.6722 13.6835C55.3138 13.1253 53.152 12.3971 53.152 9.89714C53.152 7.22727 55.5349 6.18359 58.1881 6.18359C60.8419 6.18359 63.1165 7.04967 63.4999 9.70129C63.5116 9.78314 63.4544 9.85948 63.3719 9.87337L60.5244 10.3532C60.4314 10.3688 60.3458 10.3004 60.3359 10.2078C60.2043 8.97121 59.4115 8.41658 58.2373 8.41658C57.23 8.41658 56.3948 8.78065 56.3948 9.63016C56.3948 10.4554 57.2792 10.7466 58.9251 11.1107C61.1114 11.5961 63.8383 12.1787 63.8383 15.067C63.8383 17.9796 61.2342 18.9019 58.3601 18.9019Z" fill="#F4F4F5"/>
<path d="M50.8508 7.33901C51.8335 8.30988 51.9563 9.62054 51.9563 11.1982V18.6399C51.9563 18.7259 51.8858 18.7957 51.7987 18.7957H48.6503C48.5632 18.7957 48.4926 18.7259 48.4926 18.6399V11.4894C48.4926 10.373 48.3944 9.79043 47.8539 9.28074C47.4117 8.86813 46.9941 8.7953 46.2571 8.7953C45.2007 8.7953 43.9724 9.49917 43.9724 11.9991V18.6399C43.9724 18.7259 43.9018 18.7957 43.8147 18.7957H40.6909C40.6038 18.7957 40.5332 18.7259 40.5332 18.6399V6.64529C40.5332 6.55926 40.6038 6.4895 40.6909 6.4895H43.7901C43.8772 6.4895 43.9478 6.55926 43.9478 6.64529V7.9661C43.9478 8.04072 44.06 8.06432 44.0952 7.99827C44.7864 6.70097 46.1001 6.19824 47.5837 6.19824C49.1559 6.19824 50.0647 6.56233 50.8508 7.33901Z" fill="#F4F4F5"/>
<path d="M37.8105 7.74393C39.0033 8.94225 39.6041 10.7635 39.6547 13.07C39.6565 13.1548 39.5885 13.2251 39.5029 13.2278L30.8299 13.4986C30.7423 13.5014 30.6734 13.5748 30.6794 13.6614C30.814 15.5929 31.8239 16.5516 33.6173 16.4956C35.1305 16.4483 35.8943 15.7714 36.1321 14.5879C36.1479 14.5096 36.2186 14.4527 36.2993 14.4572L39.3199 14.6257C39.4173 14.6312 39.4862 14.7222 39.4624 14.8156C38.791 17.4376 36.7917 18.8005 33.6941 18.8973C31.779 18.9571 30.2372 18.3981 29.1741 17.4357C27.9591 16.3323 27.3185 14.7496 27.2533 12.7118C27.1913 10.7711 27.6786 9.10456 28.8453 7.92679C29.8924 6.84989 31.3477 6.24591 33.2629 6.1861C35.2026 6.12551 36.7444 6.68445 37.8105 7.74393ZM33.3381 8.53926C32.3314 8.57071 31.6287 8.88405 31.1816 9.50511C30.8813 9.9127 30.7062 10.4171 30.6376 11.0007C30.6268 11.0929 30.7027 11.1714 30.7966 11.1684L35.9226 11.0083C36.0155 11.0054 36.0859 10.9238 36.0714 10.833C35.9638 10.1586 35.7467 9.59435 35.3251 9.18144C34.8429 8.71082 34.2221 8.51166 33.3381 8.53926Z" fill="#F4F4F5"/>
<path fill-rule="evenodd" clip-rule="evenodd" d="M16.6247 4.28C16.5616 4.18539 16.6776 4.07461 16.7716 4.13957L20.7101 6.85901C23.1924 8.57297 24.3353 11.6332 23.5483 14.5171C23.486 14.7456 23.4191 14.9456 23.3563 15.1131C23.3173 15.217 23.1625 15.1946 23.1546 15.0841C23.0882 14.1451 22.4028 13.0715 21.9053 12.2924C21.8165 12.1532 21.7337 12.0235 21.6615 11.9056C21.1779 11.1165 17.6777 5.85988 16.6247 4.28ZM11.4098 11.9286L16.124 4.27666C16.1788 4.18784 16.0803 4.08423 15.9868 4.13232C15.1626 4.55616 12.9389 5.78247 11.1931 7.50246C9.27987 9.38736 10.826 11.4554 11.2411 11.9415C11.2869 11.9952 11.3728 11.9886 11.4098 11.9286ZM16.0075 20.7982C16.0706 20.8928 15.9546 21.0035 15.8605 20.9386L11.9221 18.2191C9.4398 16.5052 8.29684 13.445 9.08384 10.561C9.14618 10.3326 9.21307 10.1326 9.27589 9.96502C9.31485 9.86114 9.46972 9.88356 9.47753 9.99404C9.54392 10.9331 10.2294 12.0066 10.7268 12.7858C10.8157 12.9249 10.8985 13.0546 10.9707 13.1725C11.4542 13.9616 14.9545 19.2183 16.0075 20.7982ZM16.5085 20.8007L21.2228 13.1488C21.2597 13.0888 21.3456 13.0821 21.3915 13.1358C21.8065 13.6219 23.3527 15.69 21.4395 17.5749C19.6936 19.2949 17.4699 20.5212 16.6458 20.945C16.5523 20.9931 16.4538 20.8895 16.5085 20.8007Z" fill="#F4F4F5"/>
</g>
<defs>
<clipPath id="clip0_209_4243">
<rect width="55" height="17" fill="white" transform="translate(8.83789 4)"/>
</clipPath>
</defs>
</svg>
