<svg width="56" height="17" viewBox="0 0 56 17" fill="none" xmlns="http://www.w3.org/2000/svg">
<g id="ens-logo-Blue 1" clip-path="url(#clip0_126_14958)">
<path id="Vector" d="M50.2737 14.9019C47.4031 14.9019 45.0063 13.7786 44.6881 11.0954C44.6782 11.0124 44.7389 10.9373 44.8228 10.9267L47.7681 10.5547C47.8603 10.5431 47.9421 10.6128 47.9503 10.7042C48.0684 12.0408 49.0268 12.6446 50.3474 12.6446C51.7477 12.6446 52.4599 12.1349 52.4599 11.2369C52.4599 10.4359 51.5266 10.1447 49.5858 9.68351C47.2274 9.12525 45.0656 8.39711 45.0656 5.89714C45.0656 3.22727 47.4485 2.18359 50.1017 2.18359C52.7555 2.18359 55.0301 3.04967 55.4134 5.70129C55.4252 5.78314 55.368 5.85948 55.2855 5.87337L52.4379 6.35317C52.345 6.36883 52.2594 6.3004 52.2495 6.20777C52.1178 4.97121 51.3251 4.41658 50.1509 4.41658C49.1436 4.41658 48.3084 4.78065 48.3084 5.63016C48.3084 6.45539 49.1928 6.74665 50.8387 7.11072C53.025 7.59614 55.7519 8.17866 55.7519 11.067C55.7519 13.9796 53.1478 14.9019 50.2737 14.9019Z" fill="#0080BC"/>
<path id="Vector_2" d="M42.7644 3.33926C43.7471 4.31012 43.8699 5.62079 43.8699 7.19844V14.6401C43.8699 14.7261 43.7993 14.7959 43.7122 14.7959H40.5639C40.4768 14.7959 40.4062 14.7261 40.4062 14.6401V7.48968C40.4062 6.3732 40.3079 5.79068 39.7675 5.28098C39.3253 4.86837 38.9076 4.79554 38.1706 4.79554C37.1143 4.79554 35.8859 5.49942 35.8859 7.99939V14.6401C35.8859 14.7261 35.8153 14.7959 35.7283 14.7959H32.6044C32.5174 14.7959 32.4468 14.7261 32.4468 14.6401V2.64553C32.4468 2.5595 32.5174 2.48975 32.6044 2.48975H35.7037C35.7908 2.48975 35.8614 2.5595 35.8614 2.64553V3.96634C35.8614 4.04096 35.9736 4.06456 36.0088 3.99852C36.6999 2.70122 38.0137 2.19849 39.4972 2.19849C41.0695 2.19849 41.9783 2.56258 42.7644 3.33926Z" fill="#0080BC"/>
<path id="Vector_3" d="M29.7251 3.74442C30.9178 4.94274 31.5186 6.76402 31.5692 9.07048C31.5711 9.15527 31.503 9.22556 31.4174 9.22824L22.7445 9.4991C22.6568 9.50185 22.5879 9.57531 22.594 9.66187C22.7285 11.5934 23.7385 12.5521 25.5319 12.4961C27.0451 12.4488 27.8089 11.7719 28.0467 10.5884C28.0624 10.5101 28.1332 10.4532 28.2139 10.4577L31.2345 10.6262C31.3318 10.6317 31.4007 10.7227 31.3769 10.8161C30.7055 13.4381 28.7063 14.801 25.6087 14.8978C23.6936 14.9576 22.1518 14.3986 21.0886 13.4362C19.8737 12.3328 19.2331 10.7501 19.1678 8.71231C19.1059 6.77156 19.5932 5.10505 20.7599 3.92728C21.8069 2.85038 23.2622 2.24639 25.1775 2.18659C27.1172 2.126 28.659 2.68494 29.7251 3.74442ZM25.2527 4.53975C24.246 4.5712 23.5433 4.88454 23.0961 5.5056C22.7958 5.91319 22.6207 6.41763 22.5522 7.00115C22.5413 7.09338 22.6172 7.17185 22.7111 7.16891L27.8371 7.00882C27.9301 7.00592 28.0005 6.92431 27.986 6.83346C27.8784 6.15909 27.6613 5.59483 27.2396 5.18193C26.7575 4.7113 26.1367 4.51215 25.2527 4.53975Z" fill="#0080BC"/>
<path id="Vector_4" fill-rule="evenodd" clip-rule="evenodd" d="M8.53874 0.280245C8.47568 0.185638 8.59162 0.0748525 8.68568 0.139814L12.6242 2.85925C15.1064 4.57321 16.2494 7.63345 15.4624 10.5174C15.4 10.7458 15.3332 10.9458 15.2703 11.1134C15.2314 11.2173 15.0765 11.1948 15.0687 11.0844C15.0023 10.1453 14.3169 9.07178 13.8194 8.2926C13.7306 8.15349 13.6478 8.02378 13.5755 7.90588C13.092 7.11679 9.59172 1.86012 8.53874 0.280245ZM3.32386 7.9288L8.03808 0.276902C8.09282 0.188081 7.99432 0.0844757 7.90083 0.132562C7.0767 0.556402 4.85299 1.78271 3.10716 3.5027C1.19393 5.3876 2.74011 7.45567 3.15512 7.94176C3.20099 7.99548 3.28688 7.9888 3.32386 7.9288ZM7.92155 16.7984C7.98462 16.893 7.86868 17.0038 7.77461 16.9389L3.83613 14.2194C1.35386 12.5054 0.210905 9.4452 0.9979 6.56127C1.06024 6.3328 1.12713 6.13282 1.18996 5.96526C1.22891 5.86138 1.38378 5.88381 1.39159 5.99429C1.45799 6.9333 2.14342 8.00687 2.64091 8.78605C2.72972 8.92514 2.81253 9.05487 2.88478 9.17276C3.3683 9.96185 6.86858 15.2185 7.92155 16.7984ZM8.42258 16.8009L13.1368 9.14903C13.1738 9.08905 13.2597 9.08236 13.3056 9.13607C13.7206 9.62216 15.2667 11.6902 13.3535 13.5751C11.6077 15.2951 9.38398 16.5214 8.55986 16.9453C8.46636 16.9934 8.36786 16.8897 8.42258 16.8009Z" fill="#0080BC"/>
</g>
<defs>
<clipPath id="clip0_126_14958">
<rect width="55" height="17" fill="white" transform="translate(0.751953)"/>
</clipPath>
</defs>
</svg>
