<svg width="16" height="17" viewBox="0 0 16 17" fill="none" xmlns="http://www.w3.org/2000/svg">
<path d="M13.3333 3.16666H2.66659C1.93325 3.16666 1.33992 3.76666 1.33992 4.49999L1.33325 12.5C1.33325 13.2333 1.93325 13.8333 2.66659 13.8333H13.3333C14.0666 13.8333 14.6666 13.2333 14.6666 12.5V4.49999C14.6666 3.76666 14.0666 3.16666 13.3333 3.16666ZM13.0666 5.99999L8.35325 8.94666C8.13992 9.07999 7.85992 9.07999 7.64659 8.94666L2.93325 5.99999C2.8664 5.96246 2.80786 5.91176 2.76118 5.85096C2.71449 5.79015 2.68063 5.72051 2.66164 5.64624C2.64264 5.57197 2.63892 5.49461 2.65069 5.41886C2.66246 5.34311 2.68948 5.27053 2.73011 5.20552C2.77074 5.14052 2.82414 5.08443 2.88707 5.04065C2.95 4.99688 3.02117 4.96633 3.09625 4.95086C3.17133 4.93538 3.24877 4.9353 3.32389 4.95062C3.399 4.96594 3.47023 4.99635 3.53325 5.03999L7.99992 7.83332L12.4666 5.03999C12.5296 4.99635 12.6008 4.96594 12.676 4.95062C12.7511 4.9353 12.8285 4.93538 12.9036 4.95086C12.9787 4.96633 13.0498 4.99688 13.1128 5.04065C13.1757 5.08443 13.2291 5.14052 13.2697 5.20552C13.3104 5.27053 13.3374 5.34311 13.3492 5.41886C13.3609 5.49461 13.3572 5.57197 13.3382 5.64624C13.3192 5.72051 13.2853 5.79015 13.2387 5.85096C13.192 5.91176 13.1334 5.96246 13.0666 5.99999Z" fill="#F4F4F5"/>
</svg>
