<svg width="20" height="20" viewBox="0 0 20 20" fill="none" xmlns="http://www.w3.org/2000/svg">
  <!-- ENS-style rounded square badge background -->
  <rect x="1" y="1" width="18" height="18" rx="4" fill="#0080BC"/>

  <!-- Quill pen diagonal across badge -->
  <path d="M15 4C15 4 15.5 4.5 15.5 5.5C15.5 6.5 14.5 8 12.5 10C11 11.5 9 13 7.5 14L6 15.5L5.5 15L6.5 13.5C6.5 13.5 8 11.5 9.5 9.5C11 7.5 13 5.5 14 5C14.8 4.6 15 4 15 4Z" fill="white"/>

  <!-- Feather barbs detail -->
  <path d="M14 5.5L10.5 9M13 7L9.5 10.5" stroke="rgba(255,255,255,0.4)" stroke-width="0.5" stroke-linecap="round"/>

  <!-- Ink drop / nib at writing end -->
  <circle cx="5.5" cy="15" r="1.2" fill="#5AC8FA"/>
</svg>
