<svg width="16" height="16" viewBox="0 0 16 16" fill="none" xmlns="http://www.w3.org/2000/svg">
  <!-- Quill pen at 45 degree angle -->
  <path d="M13.5 1.5C13.5 1.5 14 2 14 3C14 4.5 12.5 6.5 10 9C8.5 10.5 6 12 4.5 13L3.5 14L3 13.5L4 12.5C4 12.5 5.5 10.5 7 8.5C9 6 11 4 12.5 3C13.5 2.5 13.5 1.5 13.5 1.5Z" fill="#71717a"/>
  <!-- Feather detail lines -->
  <path d="M12 4L8 8M11 5.5L7 9.5M10 7L6 11" stroke="#52525b" stroke-width="0.5" stroke-linecap="round"/>
  <!-- ENS blue ink drop with swirl suggestion -->
  <ellipse cx="3" cy="14" rx="1.5" ry="1.2" fill="#0080BC"/>
  <path d="M2.2 13.8C2.5 13.5 3 13.5 3.5 13.8" stroke="#5AC8FA" stroke-width="0.6" stroke-linecap="round"/>
</svg>
