<svg width="16" height="17" viewBox="0 0 16 17" fill="none" xmlns="http://www.w3.org/2000/svg">
<path d="M8 0.69809C3.58 0.69809 0 4.28009 0 8.69809C0 12.2334 2.292 15.2314 5.47 16.2881C5.87 16.3634 6.01667 16.1161 6.01667 15.9034C6.01667 15.7134 6.01 15.2101 6.00667 14.5434C3.78133 15.0261 3.312 13.4701 3.312 13.4701C2.948 12.5468 2.422 12.3001 2.422 12.3001C1.69733 11.8041 2.478 11.8141 2.478 11.8141C3.28133 11.8701 3.70333 12.6381 3.70333 12.6381C4.41667 13.8614 5.576 13.5081 6.03333 13.3034C6.10533 12.7861 6.31133 12.4334 6.54 12.2334C4.76333 12.0334 2.896 11.3454 2.896 8.28009C2.896 7.40676 3.206 6.69342 3.71933 6.13342C3.62933 5.93142 3.35933 5.11809 3.78933 4.01609C3.78933 4.01609 4.45933 3.80142 5.98933 4.83609C6.62933 4.65809 7.30933 4.57009 7.98933 4.56609C8.66933 4.57009 9.34933 4.65809 9.98933 4.83609C11.5093 3.80142 12.1793 4.01609 12.1793 4.01609C12.6093 5.11809 12.3393 5.93142 12.2593 6.13342C12.7693 6.69342 13.0793 7.40676 13.0793 8.28009C13.0793 11.3534 11.2093 12.0301 9.42933 12.2268C9.70933 12.4668 9.96933 12.9574 9.96933 13.7068C9.96933 14.7774 9.95933 15.6374 9.95933 15.8974C9.95933 16.1074 10.0993 16.3574 10.5093 16.2774C13.71 15.2281 16 12.2281 16 8.69809C16 4.28009 12.418 0.69809 8 0.69809" fill="#F4F4F5"/>
</svg>
