<svg width="28" height="29" viewBox="0 0 28 29" fill="none" xmlns="http://www.w3.org/2000/svg">
<g id="SVG">
<path id="Vector" fill-rule="evenodd" clip-rule="evenodd" d="M13.6079 5.60339C12.8119 8.69593 11.2241 11.0468 9.82032 13.0254L9.60565 13.3276C7.82094 15.8418 6.6499 17.4908 6.6499 19.5383C6.6499 21.319 7.32336 22.5833 8.13857 23.4618C8.3404 18.9518 11.0649 15.5548 12.1324 14.3782C12.7802 13.6639 13.7502 13.5781 14.4715 13.9418C14.8262 14.1212 15.119 14.4026 15.3124 14.7498C15.5057 15.0971 15.5906 15.4942 15.5562 15.8902C15.4667 16.951 15.6566 17.6008 15.9013 18.0835C16.1343 18.5438 16.4228 18.8906 16.8337 19.3843C16.9294 19.4996 17.0318 19.6226 17.1414 19.7568C17.6752 20.4096 18.3449 21.2968 18.619 22.5539C18.6604 22.7443 18.6919 22.938 18.7132 23.1352C19.8023 22.1485 20.4393 21.1454 20.7782 20.1786C21.3417 18.5721 21.1866 16.769 20.4195 14.7991C19.1595 11.563 16.4056 8.27856 13.6079 5.60339ZM10.5842 2.48401C10.6901 1.03327 12.4859 -0.0628181 13.8538 1.10852C17.3421 4.09489 21.7862 8.66181 23.6809 13.5291C24.6446 16.0045 25.0048 18.7033 24.0814 21.3365C23.1544 23.9801 21.0375 26.2636 17.6364 28.1043C16.0731 28.9501 14.1612 27.4332 14.8247 25.6601C15.2981 24.3946 15.287 23.7019 15.1992 23.2997C15.1097 22.8884 14.893 22.5358 14.4322 21.9726C14.368 21.8941 14.2965 21.8093 14.2192 21.7171C13.7978 21.2154 13.2089 20.5146 12.7787 19.6649L12.7481 19.6037C11.8809 21.3207 11.2635 23.5613 11.8798 26.0262C11.9652 26.3653 11.9596 26.721 11.8634 27.0572C11.7672 27.3935 11.5839 27.6983 11.332 27.941C11.0596 28.2032 10.717 28.3809 10.3457 28.4524C9.97436 28.524 9.59026 28.4863 9.2399 28.3441C7.83174 27.7759 3.1499 25.442 3.1499 19.5386C3.1499 16.3248 4.97807 13.7747 6.56532 11.5607C6.70124 11.3717 6.83482 11.185 6.96549 11.0007C8.72511 8.51976 10.3261 6.03039 10.5842 2.48401Z" fill="#EA580C"/>
</g>
</svg>
