<svg width="16" height="17" viewBox="0 0 16 17" fill="none" xmlns="http://www.w3.org/2000/svg">
<g clip-path="url(#clip0_167_272)">
<path d="M3.32525 8.11764C3.32524 8.02829 3.34287 7.93981 3.37713 7.85729C3.4114 7.77478 3.46163 7.69985 3.52493 7.6368C3.58823 7.57376 3.66336 7.52386 3.746 7.48995C3.82864 7.45604 3.91716 7.4388 4.00648 7.43921L5.13589 7.44292C5.31597 7.44292 5.48867 7.51448 5.61601 7.64186C5.74335 7.76925 5.81488 7.94201 5.81488 8.12216V12.3944C5.94211 12.3567 6.10528 12.3165 6.28403 12.2746C6.40814 12.2453 6.51875 12.175 6.59793 12.0751C6.6771 11.9751 6.7202 11.8513 6.72023 11.7237V6.42435C6.72021 6.24418 6.79174 6.07139 6.91908 5.94397C7.04641 5.81656 7.21912 5.74497 7.39922 5.74494H8.53092C8.71102 5.74498 8.88372 5.81658 9.01105 5.94399C9.13838 6.0714 9.20992 6.24419 9.20992 6.42435V11.3429C9.20992 11.3429 9.49313 11.2282 9.7692 11.1116C9.87172 11.0682 9.95919 10.9956 10.0207 10.9028C10.0823 10.81 10.1151 10.7012 10.1152 10.5898V4.72593C10.1152 4.63674 10.1328 4.54842 10.1669 4.46602C10.201 4.38361 10.251 4.30873 10.314 4.24566C10.3771 4.18258 10.4519 4.13255 10.5343 4.09841C10.6166 4.06427 10.7049 4.0467 10.7941 4.04669H11.9258C12.1059 4.04669 12.2786 4.11825 12.4059 4.24563C12.5333 4.37301 12.6048 4.54578 12.6048 4.72593V9.55453C13.5859 8.84325 14.5803 7.9877 15.3694 6.95899C15.4838 6.80967 15.5596 6.63432 15.5899 6.44859C15.6201 6.26286 15.604 6.07252 15.5428 5.89455C15.0089 4.33802 14.0075 2.98446 12.6754 2.01893C11.3433 1.05339 9.74556 0.523034 8.10071 0.500359C3.66526 0.440754 -0.000397328 4.06276 3.83791e-05 8.50039C-0.00431669 9.9046 0.362044 11.2851 1.06208 12.5022C1.15862 12.6687 1.30064 12.8041 1.47147 12.8927C1.6423 12.9812 1.83483 13.0191 2.02646 13.002C2.24056 12.9831 2.5071 12.9565 2.82397 12.9193C2.96189 12.9036 3.08922 12.8377 3.18171 12.7341C3.2742 12.6306 3.32538 12.4966 3.32552 12.3578V8.11764" fill="#F4F4F5"/>
<path d="M3.30059 14.9696C4.49345 15.8377 5.9031 16.3587 7.37361 16.4751C8.84412 16.5915 10.3182 16.2987 11.6326 15.6291C12.9471 14.9594 14.0508 13.9391 14.8216 12.6809C15.5923 11.4227 16.0002 9.97579 15.9999 8.50014C15.9999 8.31593 15.9914 8.13379 15.9791 7.95264C13.0576 12.3113 7.66328 14.3493 3.30054 14.9697" fill="#F4F4F5"/>
</g>
<defs>
<clipPath id="clip0_167_272">
<rect width="16" height="16" fill="white" transform="translate(0 0.5)"/>
</clipPath>
</defs>
</svg>
