<svg width="20" height="20" viewBox="0 0 20 20" fill="none" xmlns="http://www.w3.org/2000/svg">
<g id="SVG">
<path id="Vector" fill-rule="evenodd" clip-rule="evenodd" d="M11.8458 13.6133C10.5774 14.5176 9.05781 15.0025 7.5 15C3.35792 15 0 11.6421 0 7.5C0 3.35792 3.35792 0 7.5 0C11.6421 0 15 3.35792 15 7.5C15.0025 9.05781 14.5176 10.5774 13.6133 11.8458L19.009 17.241C19.125 17.3571 19.2171 17.4949 19.2799 17.6466C19.3428 17.7983 19.3751 17.9608 19.3751 18.125C19.3751 18.2892 19.3428 18.4517 19.2799 18.6034C19.2171 18.7551 19.125 18.8929 19.009 19.009C18.8929 19.125 18.7551 19.2171 18.6034 19.2799C18.4517 19.3428 18.2892 19.3751 18.125 19.3751C17.9608 19.3751 17.7983 19.3428 17.6466 19.2799C17.4949 19.2171 17.3571 19.125 17.241 19.009L11.8458 13.6133ZM12.5 7.5C12.5 10.2615 10.2615 12.5 7.5 12.5C4.73854 12.5 2.5 10.2615 2.5 7.5C2.5 4.73854 4.73854 2.5 7.5 2.5C10.2615 2.5 12.5 4.73854 12.5 7.5Z" fill="#F4F4F5"/>
</g>
</svg>
