<svg width="221" height="19" viewBox="0 0 221 19" fill="none" xmlns="http://www.w3.org/2000/svg">
<path d="M19.4214 0.748047L11.1328 17.6304C11.0026 17.8908 10.8073 18.0983 10.5469 18.2529C10.2946 18.4157 10.0138 18.4971 9.70459 18.4971C9.40348 18.4971 9.12272 18.4157 8.8623 18.2529C8.61003 18.0983 8.41471 17.8908 8.27637 17.6304L0 0.748047H3.55225L9.70459 13.3579L15.8813 0.748047H19.4214Z" fill="white"/>
<path d="M39.2212 11.1729C39.2212 12.2389 39.0381 13.2196 38.6719 14.1147C38.3057 15.0099 37.797 15.783 37.146 16.4341C36.495 17.0851 35.7218 17.5938 34.8267 17.96C33.9396 18.318 32.9712 18.4971 31.9214 18.4971H27.6245C26.5747 18.4971 25.6022 18.318 24.707 17.96C23.8118 17.5938 23.0387 17.0851 22.3877 16.4341C21.7367 15.783 21.224 15.0099 20.8496 14.1147C20.4834 13.2196 20.3003 12.2389 20.3003 11.1729V7.82812C20.3003 6.77018 20.4834 5.79362 20.8496 4.89844C21.224 3.99512 21.7367 3.22201 22.3877 2.5791C23.0387 1.92806 23.8118 1.41943 24.707 1.05322C25.6022 0.687012 26.5747 0.503906 27.6245 0.503906H31.9214C32.9712 0.503906 33.9396 0.687012 34.8267 1.05322C35.7218 1.41943 36.495 1.92806 37.146 2.5791C37.797 3.22201 38.3057 3.99512 38.6719 4.89844C39.0381 5.79362 39.2212 6.77018 39.2212 7.82812V11.1729ZM36.0474 7.82812C36.0474 7.2015 35.9456 6.6359 35.7422 6.13135C35.5469 5.61865 35.2661 5.18327 34.8999 4.8252C34.5418 4.45898 34.1064 4.17822 33.5938 3.98291C33.0892 3.77946 32.5317 3.67773 31.9214 3.67773H27.6245C27.006 3.67773 26.4404 3.77946 25.9277 3.98291C25.4232 4.17822 24.9878 4.45898 24.6216 4.8252C24.2554 5.18327 23.9705 5.61865 23.7671 6.13135C23.5718 6.6359 23.4741 7.2015 23.4741 7.82812V11.1729C23.4741 11.7995 23.5718 12.3691 23.7671 12.8818C23.9705 13.3864 24.2554 13.8218 24.6216 14.188C24.9878 14.5461 25.4232 14.8268 25.9277 15.0303C26.4404 15.2256 27.006 15.3232 27.6245 15.3232H31.897C32.5155 15.3232 33.077 15.2256 33.5815 15.0303C34.0942 14.8268 34.5337 14.5461 34.8999 14.188C35.2661 13.8218 35.5469 13.3864 35.7422 12.8818C35.9456 12.3691 36.0474 11.7995 36.0474 11.1729V7.82812Z" fill="white"/>
<path d="M57.9346 3.92188H50.9399V18.2529H47.7661V3.92188H40.7593V0.748047H57.9346V3.92188Z" fill="white"/>
<path d="M63.4766 18.2529H60.3027V0.748047H63.4766V18.2529Z" fill="white"/>
<path d="M84.6802 16.8979C84.6802 17.1258 84.6354 17.3374 84.5459 17.5327C84.4645 17.728 84.3506 17.8989 84.2041 18.0454C84.0658 18.1838 83.8989 18.2936 83.7036 18.375C83.5083 18.4564 83.3008 18.4971 83.0811 18.4971C82.8857 18.4971 82.6864 18.4604 82.4829 18.3872C82.2876 18.314 82.1126 18.196 81.958 18.0332L70.3613 5.92383V18.2529H67.1875V2.10303C67.1875 1.77751 67.277 1.48454 67.4561 1.22412C67.6432 0.955566 67.8792 0.756185 68.1641 0.625977C68.4652 0.503906 68.7744 0.475423 69.0918 0.540527C69.4092 0.597493 69.6818 0.743978 69.9097 0.97998L81.5063 13.0771V0.748047H84.6802V16.8979Z" fill="white"/>
<path d="M105.652 16.6538C105.652 16.8817 105.611 17.0933 105.53 17.2886C105.448 17.4839 105.334 17.6548 105.188 17.8013C105.05 17.9396 104.883 18.0495 104.688 18.1309C104.492 18.2122 104.281 18.2529 104.053 18.2529H92.6025C92.3096 18.2529 91.9922 18.2204 91.6504 18.1553C91.3167 18.082 90.9831 17.9722 90.6494 17.8257C90.3239 17.6792 90.0106 17.492 89.7095 17.2642C89.4084 17.0282 89.1398 16.7474 88.9038 16.4219C88.6759 16.0882 88.4928 15.7057 88.3545 15.2744C88.2161 14.835 88.147 14.3426 88.147 13.7974V5.20361C88.147 4.91064 88.1795 4.59733 88.2446 4.26367C88.3179 3.92188 88.4277 3.58822 88.5742 3.2627C88.7207 2.92904 88.9119 2.61165 89.1479 2.31055C89.384 2.00944 89.6647 1.74495 89.9902 1.51709C90.3239 1.28109 90.7064 1.09391 91.1377 0.955566C91.569 0.81722 92.0573 0.748047 92.6025 0.748047H105.505V3.92188H92.6025C92.1875 3.92188 91.8701 4.03174 91.6504 4.25146C91.4307 4.47119 91.3208 4.79671 91.3208 5.22803V13.7974C91.3208 14.2043 91.4307 14.5216 91.6504 14.7495C91.8783 14.9692 92.1956 15.0791 92.6025 15.0791H102.478V11.0996H94.0308V7.90137H104.053C104.281 7.90137 104.492 7.94613 104.688 8.03564C104.883 8.11702 105.05 8.23096 105.188 8.37744C105.334 8.52393 105.448 8.69482 105.53 8.89014C105.611 9.07731 105.652 9.28076 105.652 9.50049V16.6538Z" fill="white"/>
<path d="M134.534 8.07227C134.534 8.79655 134.444 9.44352 134.265 10.0132C134.086 10.5828 133.842 11.0874 133.533 11.5269C133.232 11.9582 132.882 12.3285 132.483 12.6377C132.084 12.9469 131.665 13.1992 131.226 13.3945C130.794 13.5898 130.355 13.7323 129.907 13.8218C129.468 13.9113 129.053 13.9561 128.662 13.9561H121.484V10.7822H128.662C129.069 10.7497 129.435 10.6683 129.761 10.5381C130.094 10.3997 130.379 10.2166 130.615 9.98877C130.851 9.7609 131.034 9.48828 131.165 9.1709C131.295 8.84538 131.36 8.47917 131.36 8.07227V6.63184C131.319 6.23307 131.234 5.86686 131.104 5.5332C130.973 5.19954 130.794 4.91471 130.566 4.67871C130.347 4.44271 130.078 4.2596 129.761 4.12939C129.443 3.99105 129.077 3.92188 128.662 3.92188H121.509C121.086 3.92188 120.764 4.03174 120.544 4.25146C120.325 4.47119 120.215 4.78857 120.215 5.20361V18.2529H117.041V5.20361C117.041 4.38981 117.188 3.69808 117.48 3.12842C117.782 2.55876 118.152 2.09896 118.591 1.74902C119.039 1.39909 119.523 1.14681 120.044 0.992188C120.565 0.829427 121.045 0.748047 121.484 0.748047H128.662C129.378 0.748047 130.021 0.841634 130.591 1.02881C131.16 1.20785 131.661 1.45199 132.092 1.76123C132.532 2.06234 132.902 2.41227 133.203 2.81104C133.512 3.2098 133.765 3.62891 133.96 4.06836C134.163 4.49967 134.31 4.93913 134.399 5.38672C134.489 5.82617 134.534 6.24121 134.534 6.63184V8.07227Z" fill="white"/>
<path d="M180.969 0.748047L178.04 17.1543C177.974 17.4798 177.828 17.7606 177.6 17.9966C177.372 18.2326 177.096 18.3831 176.77 18.4482C176.436 18.5052 176.119 18.4686 175.818 18.3384C175.525 18.2082 175.293 18.0047 175.122 17.728L169.312 8.18213L163.489 17.728C163.35 17.964 163.159 18.1471 162.915 18.2773C162.679 18.4076 162.423 18.4727 162.146 18.4727C161.764 18.4727 161.426 18.3506 161.133 18.1064C160.84 17.8623 160.661 17.5449 160.596 17.1543L157.642 0.748047H160.864L162.964 12.3081L167.969 4.32471C168.107 4.0887 168.294 3.9056 168.53 3.77539C168.774 3.64518 169.035 3.58008 169.312 3.58008C169.588 3.58008 169.845 3.64518 170.081 3.77539C170.317 3.9056 170.512 4.0887 170.667 4.32471L175.647 12.3081L177.747 0.748047H180.969Z" fill="white"/>
<path d="M198.083 11.0996H188.062V7.90137H198.083V11.0996ZM199.512 18.2529H188.062C187.622 18.2529 187.142 18.1756 186.621 18.021C186.1 17.8664 185.616 17.6141 185.168 17.2642C184.729 16.9061 184.359 16.4463 184.058 15.8848C183.765 15.3151 183.618 14.6193 183.618 13.7974V2.34717C183.618 2.12744 183.659 1.91992 183.74 1.72461C183.822 1.5293 183.931 1.3584 184.07 1.21191C184.216 1.06543 184.387 0.951497 184.583 0.870117C184.778 0.788737 184.989 0.748047 185.217 0.748047H199.512V3.92188H186.792V13.7974C186.792 14.2124 186.902 14.5298 187.122 14.7495C187.341 14.9692 187.663 15.0791 188.086 15.0791H199.512V18.2529Z" fill="white"/>
<path d="M220.081 6.63184C220.081 7.35612 219.991 8.00309 219.812 8.57275C219.633 9.14242 219.389 9.64697 219.08 10.0864C218.778 10.5177 218.429 10.888 218.03 11.1973C217.631 11.5065 217.212 11.7629 216.772 11.9663C216.341 12.1616 215.902 12.304 215.454 12.3936C215.015 12.4831 214.6 12.5278 214.209 12.5278L220.837 18.2529H215.93L209.314 12.5278H207.031V9.354H214.209C214.608 9.32145 214.97 9.24007 215.295 9.10986C215.629 8.97152 215.914 8.78841 216.15 8.56055C216.394 8.33268 216.581 8.06006 216.711 7.74268C216.842 7.41715 216.907 7.04688 216.907 6.63184V4.62988C216.907 4.45085 216.882 4.31657 216.833 4.22705C216.793 4.12939 216.736 4.06022 216.663 4.01953C216.597 3.9707 216.524 3.94222 216.443 3.93408C216.37 3.92594 216.3 3.92188 216.235 3.92188H205.762V18.2529H202.588V2.34717C202.588 2.12744 202.629 1.91992 202.71 1.72461C202.791 1.5293 202.901 1.3584 203.04 1.21191C203.186 1.06543 203.357 0.951497 203.552 0.870117C203.748 0.788737 203.959 0.748047 204.187 0.748047H216.235C216.943 0.748047 217.542 0.878255 218.03 1.13867C218.518 1.39095 218.913 1.7124 219.214 2.10303C219.523 2.48551 219.743 2.90055 219.873 3.34814C220.011 3.79574 220.081 4.21484 220.081 4.60547V6.63184Z" fill="white"/>
<path fill-rule="evenodd" clip-rule="evenodd" d="M155.079 14.1147C155.445 13.2196 155.628 12.2389 155.628 11.1729V7.82812C155.628 6.77018 155.445 5.79362 155.079 4.89844C154.712 3.99512 154.204 3.22201 153.553 2.5791C152.902 1.92806 152.129 1.41943 151.233 1.05322C150.346 0.687012 149.378 0.503906 148.328 0.503906H144.031C142.981 0.503906 142.009 0.687012 141.114 1.05322C140.219 1.41943 139.445 1.92806 138.794 2.5791C138.143 3.22201 137.631 3.99512 137.256 4.89844C136.89 5.79362 136.707 6.77018 136.707 7.82812V11.1729C136.707 12.2389 136.89 13.2196 137.256 14.1147C137.631 15.0099 138.143 15.783 138.794 16.4341C139.445 17.0851 140.219 17.5938 141.114 17.96C142.009 18.318 142.981 18.4971 144.031 18.4971H148.328C149.378 18.4971 150.346 18.318 151.233 17.96C152.129 17.5938 152.902 17.0851 153.553 16.4341C154.204 15.783 154.712 15.0099 155.079 14.1147ZM145.987 2.75192C145.349 2.16358 144.513 2.71412 144.464 3.4428C144.343 5.22406 143.598 6.47442 142.778 7.72053C142.717 7.81312 142.655 7.90688 142.591 8.00181L142.591 8.00186C141.852 9.11391 141 10.3947 141 12.009C141 14.9741 143.181 16.1464 143.837 16.4317C144.001 16.5032 144.18 16.5221 144.353 16.4862C144.525 16.4502 144.685 16.361 144.812 16.2293C144.929 16.1074 145.015 15.9543 145.06 15.7854C145.104 15.6165 145.107 15.4378 145.067 15.2675C144.78 14.0295 145.068 12.9041 145.472 12.0416L145.486 12.0724C145.686 12.4991 145.96 12.851 146.157 13.103L146.157 13.1032L146.171 13.1211C146.202 13.1605 146.23 13.1972 146.256 13.2315C146.471 13.5144 146.572 13.6915 146.613 13.898C146.654 14.1001 146.66 14.448 146.439 15.0837C146.13 15.9742 147.021 16.7362 147.749 16.3113C149.333 15.3868 150.319 14.2398 150.751 12.912C151.181 11.5894 151.013 10.2338 150.564 8.99052C149.682 6.54577 147.612 4.25191 145.987 2.75192Z" fill="white"/>
</svg>
