<svg width="221" height="19" viewBox="0 0 221 19" fill="none" xmlns="http://www.w3.org/2000/svg">
<path d="M19.4288 0.744233L11.137 17.633C11.0068 17.8935 10.8114 18.1011 10.5509 18.2558C10.2985 18.4186 10.0176 18.5 9.70828 18.5C9.40706 18.5 9.12619 18.4186 8.86567 18.2558C8.6133 18.1011 8.41791 17.8935 8.27951 17.633L0 0.744233H3.5536L9.70828 13.3589L15.8874 0.744233H19.4288Z" fill="white"/>
<path d="M39.2361 11.173C39.2361 12.2395 39.0529 13.2205 38.6866 14.116C38.3202 15.0115 37.8114 15.7849 37.1601 16.4362C36.5088 17.0875 35.7354 17.5963 34.8399 17.9627C33.9525 18.3209 32.9837 18.5 31.9335 18.5H27.635C26.5848 18.5 25.6119 18.3209 24.7164 17.9627C23.8209 17.5963 23.0475 17.0875 22.3962 16.4362C21.7449 15.7849 21.232 15.0115 20.8575 14.116C20.4912 13.2205 20.308 12.2395 20.308 11.173V7.827C20.308 6.76866 20.4912 5.79172 20.8575 4.8962C21.232 3.99254 21.7449 3.21913 22.3962 2.57598C23.0475 1.92469 23.8209 1.41588 24.7164 1.04953C25.6119 0.683175 26.5848 0.5 27.635 0.5H31.9335C32.9837 0.5 33.9525 0.683175 34.8399 1.04953C35.7354 1.41588 36.5088 1.92469 37.1601 2.57598C37.8114 3.21913 38.3202 3.99254 38.6866 4.8962C39.0529 5.79172 39.2361 6.76866 39.2361 7.827V11.173ZM36.0611 7.827C36.0611 7.20014 35.9593 6.63433 35.7558 6.12958C35.5604 5.61669 35.2795 5.18114 34.9132 4.82293C34.555 4.45658 34.1194 4.17571 33.6065 3.98033C33.1018 3.7768 32.5441 3.67503 31.9335 3.67503H27.635C27.0163 3.67503 26.4505 3.7768 25.9376 3.98033C25.4328 4.17571 24.9973 4.45658 24.6309 4.82293C24.2646 5.18114 23.9796 5.61669 23.7761 6.12958C23.5807 6.63433 23.483 7.20014 23.483 7.827V11.173C23.483 11.7999 23.5807 12.3697 23.7761 12.8826C23.9796 13.3874 24.2646 13.8229 24.6309 14.1893C24.9973 14.5475 25.4328 14.8284 25.9376 15.0319C26.4505 15.2273 27.0163 15.325 27.635 15.325H31.9091C32.5278 15.325 33.0896 15.2273 33.5943 15.0319C34.1072 14.8284 34.5468 14.5475 34.9132 14.1893C35.2795 13.8229 35.5604 13.3874 35.7558 12.8826C35.9593 12.3697 36.0611 11.7999 36.0611 11.173V7.827Z" fill="white"/>
<path d="M57.9566 3.91927H50.9593V18.2558H47.7843V3.91927H40.7748V0.744233H57.9566V3.91927Z" fill="white"/>
<path d="M63.5007 18.2558H60.3256V0.744233H63.5007V18.2558Z" fill="white"/>
<path d="M84.7123 16.9003C84.7123 17.1282 84.6676 17.3399 84.578 17.5353C84.4966 17.7307 84.3826 17.9016 84.2361 18.0482C84.0977 18.1866 83.9308 18.2965 83.7354 18.3779C83.54 18.4593 83.3324 18.5 83.1126 18.5C82.9172 18.5 82.7178 18.4634 82.5142 18.3901C82.3189 18.3168 82.1438 18.1988 81.9891 18.036L70.3881 5.92198V18.2558H67.213V2.09973C67.213 1.77408 67.3026 1.481 67.4817 1.22049C67.6689 0.951832 67.905 0.752374 68.19 0.622117C68.4912 0.5 68.8005 0.471506 69.118 0.536635C69.4355 0.593623 69.7083 0.740163 69.9362 0.976255L81.5373 13.078V0.744233H84.7123V16.9003Z" fill="white"/>
<path d="M105.692 16.656C105.692 16.884 105.651 17.0957 105.57 17.291C105.488 17.4864 105.374 17.6574 105.228 17.8039C105.09 17.9423 104.923 18.0522 104.727 18.1336C104.532 18.2151 104.32 18.2558 104.092 18.2558H92.6377C92.3446 18.2558 92.0271 18.2232 91.6852 18.1581C91.3514 18.0848 91.0176 17.9749 90.6839 17.8284C90.3582 17.6818 90.0448 17.4946 89.7436 17.2666C89.4423 17.0305 89.1737 16.7497 88.9376 16.424C88.7096 16.0902 88.5265 15.7076 88.3881 15.2761C88.2497 14.8365 88.1805 14.344 88.1805 13.7985V5.20149C88.1805 4.90841 88.213 4.59498 88.2782 4.26119C88.3514 3.91927 88.4613 3.58548 88.6079 3.25984C88.7544 2.92605 88.9457 2.60855 89.1818 2.30733C89.4179 2.00611 89.6988 1.74152 90.0244 1.51357C90.3582 1.27748 90.7408 1.09023 91.1723 0.951832C91.6038 0.813433 92.0923 0.744233 92.6377 0.744233H105.545V3.91927H92.6377C92.2225 3.91927 91.905 4.02917 91.6852 4.24898C91.4654 4.46879 91.3555 4.79444 91.3555 5.22592V13.7985C91.3555 14.2056 91.4654 14.5231 91.6852 14.751C91.9132 14.9708 92.2307 15.0807 92.6377 15.0807H102.517V11.0997H94.0665V7.90027H104.092C104.32 7.90027 104.532 7.94505 104.727 8.0346C104.923 8.11601 105.09 8.22999 105.228 8.37653C105.374 8.52307 105.488 8.69403 105.57 8.88942C105.651 9.07666 105.692 9.28019 105.692 9.5V16.656Z" fill="white"/>
<path d="M134.585 8.07123C134.585 8.79579 134.495 9.44301 134.316 10.0129C134.137 10.5828 133.893 11.0875 133.583 11.5271C133.282 11.9586 132.932 12.329 132.533 12.6384C132.134 12.9478 131.715 13.2001 131.275 13.3955C130.844 13.5909 130.404 13.7334 129.957 13.8229C129.517 13.9125 129.102 13.9573 128.711 13.9573H121.531V10.7822H128.711C129.118 10.7497 129.484 10.6682 129.81 10.538C130.144 10.3996 130.429 10.2164 130.665 9.98847C130.901 9.76052 131.084 9.48779 131.214 9.17028C131.345 8.84464 131.41 8.47829 131.41 8.07123V6.63026C131.369 6.23134 131.284 5.86499 131.153 5.53121C131.023 5.19742 130.844 4.91248 130.616 4.67639C130.396 4.4403 130.128 4.25712 129.81 4.12687C129.493 3.98847 129.126 3.91927 128.711 3.91927H121.555C121.132 3.91927 120.81 4.02917 120.59 4.24898C120.37 4.46879 120.261 4.7863 120.261 5.20149V18.2558H117.085V5.20149C117.085 4.38738 117.232 3.69539 117.525 3.12551C117.826 2.55563 118.197 2.09566 118.636 1.74559C119.084 1.39552 119.569 1.14315 120.09 0.988467C120.611 0.825645 121.091 0.744233 121.531 0.744233H128.711C129.427 0.744233 130.071 0.837856 130.64 1.0251C131.21 1.20421 131.711 1.44844 132.142 1.7578C132.582 2.05902 132.953 2.40909 133.254 2.80801C133.563 3.20692 133.815 3.62619 134.011 4.06581C134.214 4.49729 134.361 4.93691 134.45 5.38467C134.54 5.82429 134.585 6.23948 134.585 6.63026V8.07123Z" fill="white"/>
<path d="M181.038 0.744233L178.107 17.1567C178.042 17.4824 177.896 17.7632 177.668 17.9993C177.44 18.2354 177.163 18.386 176.837 18.4512C176.503 18.5081 176.186 18.4715 175.885 18.3412C175.592 18.211 175.36 18.0075 175.189 17.7307L169.376 8.18114L163.551 17.7307C163.412 17.9668 163.221 18.1499 162.977 18.2802C162.741 18.4104 162.484 18.4756 162.208 18.4756C161.825 18.4756 161.487 18.3535 161.194 18.1092C160.901 17.865 160.722 17.5475 160.657 17.1567L157.701 0.744233H160.925L163.026 12.3087L168.033 4.32225C168.171 4.08616 168.358 3.90299 168.594 3.77273C168.839 3.64247 169.099 3.57734 169.376 3.57734C169.653 3.57734 169.909 3.64247 170.145 3.77273C170.381 3.90299 170.577 4.08616 170.731 4.32225L175.714 12.3087L177.814 0.744233H181.038Z" fill="white"/>
<path d="M198.159 11.0997H188.133V7.90027H198.159V11.0997ZM199.588 18.2558H188.133C187.693 18.2558 187.213 18.1784 186.692 18.0237C186.171 17.8691 185.687 17.6167 185.239 17.2666C184.799 16.9084 184.429 16.4484 184.128 15.8867C183.834 15.3168 183.688 14.6208 183.688 13.7985V2.34396C183.688 2.12415 183.729 1.91655 183.81 1.72117C183.891 1.52578 184.001 1.35482 184.14 1.20828C184.286 1.06174 184.457 0.947761 184.653 0.86635C184.848 0.784939 185.06 0.744233 185.288 0.744233H199.588V3.91927H186.863V13.7985C186.863 14.2137 186.973 14.5312 187.193 14.751C187.412 14.9708 187.734 15.0807 188.157 15.0807H199.588V18.2558Z" fill="white"/>
<path d="M220.164 6.63026C220.164 7.35482 220.075 8.00204 219.896 8.57191C219.716 9.14179 219.472 9.64654 219.163 10.0862C218.862 10.5176 218.512 10.8881 218.113 11.1974C217.714 11.5068 217.294 11.7632 216.855 11.9668C216.423 12.1621 215.984 12.3046 215.536 12.3942C215.096 12.4837 214.681 12.5285 214.29 12.5285L220.921 18.2558H216.012L209.393 12.5285H207.11V9.35346H214.29C214.689 9.3209 215.052 9.23948 215.377 9.10923C215.711 8.97083 215.996 8.78765 216.232 8.5597C216.476 8.33175 216.664 8.05902 216.794 7.74152C216.924 7.41588 216.989 7.04545 216.989 6.63026V4.62754C216.989 4.44844 216.965 4.31411 216.916 4.22456C216.875 4.12687 216.818 4.05767 216.745 4.01696C216.68 3.96811 216.607 3.93962 216.525 3.93148C216.452 3.92334 216.383 3.91927 216.318 3.91927H205.84V18.2558H202.665V2.34396C202.665 2.12415 202.706 1.91655 202.787 1.72117C202.868 1.52578 202.978 1.35482 203.117 1.20828C203.263 1.06174 203.434 0.947761 203.63 0.86635C203.825 0.784939 204.037 0.744233 204.265 0.744233H216.318C217.026 0.744233 217.624 0.874491 218.113 1.13501C218.601 1.38738 218.996 1.70896 219.297 2.09973C219.607 2.48236 219.826 2.89756 219.957 3.34532C220.095 3.79308 220.164 4.21235 220.164 4.60312V6.63026Z" fill="white"/>
<path fill-rule="evenodd" clip-rule="evenodd" d="M155.138 14.116C155.504 13.2205 155.687 12.2395 155.687 11.173V7.827C155.687 6.76866 155.504 5.79172 155.138 4.8962C154.771 3.99254 154.262 3.21913 153.611 2.57598C152.96 1.92469 152.186 1.41588 151.291 1.04953C150.404 0.683175 149.435 0.5 148.385 0.5H144.086C143.036 0.5 142.063 0.683175 141.167 1.04953C140.272 1.41588 139.499 1.92469 138.847 2.57598C138.196 3.21913 137.683 3.99254 137.309 4.8962C136.942 5.79172 136.759 6.76866 136.759 7.827V11.173C136.759 12.2395 136.942 13.2205 137.309 14.116C137.683 15.0115 138.196 15.7849 138.847 16.4362C139.499 17.0875 140.272 17.5963 141.167 17.9627C142.063 18.3209 143.036 18.5 144.086 18.5H148.385C149.435 18.5 150.404 18.3209 151.291 17.9627C152.186 17.5963 152.96 17.0875 153.611 16.4362C154.262 15.7849 154.771 15.0115 155.138 14.116ZM146.042 2.74886C145.404 2.16031 144.568 2.71105 144.518 3.44001C144.398 5.22195 143.652 6.47278 142.832 7.71937C142.771 7.81199 142.709 7.90578 142.645 8.00075L142.645 8.00081C141.906 9.11328 141.054 10.3946 141.054 12.0094C141.054 14.9757 143.236 16.1484 143.892 16.4339C144.055 16.5054 144.234 16.5243 144.407 16.4883C144.58 16.4524 144.74 16.3631 144.867 16.2313C144.984 16.1094 145.07 15.9562 145.114 15.7873C145.159 15.6183 145.162 15.4396 145.122 15.2692C144.835 14.0307 145.123 12.9049 145.527 12.0421L145.541 12.0729C145.741 12.4997 146.016 12.8518 146.212 13.1039L146.212 13.104L146.226 13.1219C146.257 13.1614 146.285 13.1981 146.311 13.2324C146.526 13.5154 146.627 13.6926 146.669 13.8992C146.71 14.1013 146.715 14.4494 146.494 15.0853C146.185 15.9762 147.076 16.7384 147.805 16.3134C149.39 15.3885 150.376 14.2411 150.808 12.9128C151.238 11.5897 151.071 10.2336 150.621 8.98984C149.739 6.54416 147.668 4.24942 146.042 2.74886Z" fill="#EA580C"/>
</svg>
